ply 
format ascii 1.0 
element vertex 60 
property float x
property float y 
property float z
end_header
0,126021 -0,043106 1,136407 
0,148618 -0,127061 2,792811 
-0,117188 -0,087633 1,966353 
0,107515 0,243424 -4,737297 
0,113730 0,308894 -6,012008 
0,151210 -0,150402 3,206526 
0,190948 -0,245224 5,265211 
0,111983 0,265438 -5,160479 
0,103967 0,162044 -3,040160 
-0,151422 0,140500 -2,617561 
0,105942 0,141827 -2,618868 
0,155858 -0,171232 3,620400 
-0,137537 -0,027288 0,723464 
-0,143605 0,304641 -6,012239 
-0,145364 0,261988 -5,160137 
-0,108718 -0,130085 2,795671 
0,198547 -0,263369 5,676879 
0,111046 0,123175 -2,197193 
0,140156 -0,085145 1,963700 
0,201564 -0,282098 6,090565 
0,119821 -0,026457 0,721078 
0,101945 0,183130 -3,462841 
-0,086340 -0,215268 4,447835 
-0,144442 0,098987 -1,776492 
-0,141226 -0,005543 0,307086 
-0,146315 0,121538 -2,195797 
-0,131332 -0,044763 1,138868 
0,142923 -0,103569 2,378110 
-0,153398 0,160873 -3,039036 
0,170964 -0,210260 4,444822 
-0,141944 0,050998 -0,938975 
-0,155421 0,181953 -3,461898 
-0,055706 -0,288450 6,093864 
0,104384 0,222275 -4,312821 
-0,101473 -0,174586 3,623373 
0,112918 0,100760 -1,777980 
-0,106124 -0,153673 3,209452 
-0,123066 -0,066502 1,552910 
-0,155349 0,201120 -3,886599 
-0,058726 -0,269715 5,680043 
-0,075880 -0,235183 4,857913 
0,115419 0,051741 -0,940806 
0,116395 0,075562 -1,358281 
0,114448 0,011465 -0,110216 
-0,140967 0,074165 -1,356682 
-0,066329 -0,251416 5,268296 
0,134282 -0,064217 1,550379 
-0,143531 0,031365 -0,522389 
0,113830 0,032078 -0,524463 
-0,142912 0,010849 -0,107965 
0,181410 -0,229491 4,854893 
-0,095790 -0,196687 4,036939 
0,102015 0,202651 -3,887441 
0,116134 -0,005172 0,304770 
-0,149840 0,240660 -4,736660 
-0,114419 -0,106239 2,380892 
-0,152977 0,220208 -4,312060 
0,114101 0,288060 -5,585107 
-0,143239 0,284086 -5,585083 
0,161532 -0,192730 4,033941 
